<svg width="167" height="167" viewBox="0 0 167 167" fill="none" xmlns="http://www.w3.org/2000/svg">
<path d="M33.3797 94.0765C26.9731 100.482 22.5453 108.596 20.625 117.45C18.7046 126.303 19.3727 135.522 22.5497 144.007L83.2797 83.2765C74.8022 80.1021 65.5908 79.4325 56.7434 81.3473C47.896 83.2622 39.7858 87.6809 33.3797 94.0765Z" fill="#7ed0fc"/>
<path d="M13.8197 74.5865C7.41868 80.9872 2.99412 89.0941 1.07383 97.9402C-0.846457 106.786 -0.181395 115.998 2.98967 124.477L63.7197 63.7565C55.2398 60.5834 46.026 59.9172 37.1779 61.8376C28.3299 63.7579 20.2212 68.1836 13.8197 74.5865Z" fill="#7ed0fc"/>
<path d="M133.18 72.4165C139.585 66.0164 144.012 57.9077 145.932 49.0591C147.853 40.2104 147.185 30.996 144.01 22.5165L83.2897 83.2465C91.7682 86.4176 100.98 87.0827 109.826 85.1624C118.672 83.2421 126.779 78.8175 133.18 72.4165Z" fill="#7ed0fc"/>
<path d="M152.79 91.8965C159.189 85.4946 163.612 77.3877 165.532 68.5421C167.452 59.6965 166.788 50.4854 163.62 42.0065L102.89 102.737C111.371 105.906 120.585 106.569 129.432 104.647C138.28 102.725 146.388 98.299 152.79 91.8965Z" fill="#7ed0fc"/>
<path d="M72.4997 33.3465C66.0968 26.9458 57.9882 22.5215 49.1406 20.6013C40.293 18.681 31.0799 19.3459 22.5997 22.5165L83.3297 83.2465C86.5003 74.7663 87.1652 65.5532 85.245 56.7056C83.3247 47.8581 78.9005 39.7494 72.4997 33.3465Z" fill="#7ed0fc"/>
<path d="M91.9797 13.7965C85.5752 7.3983 77.4644 2.97863 68.616 1.06531C59.7676 -0.848001 50.5555 -0.1741 42.0797 3.00655L102.81 63.7265C105.992 55.2431 106.662 46.0226 104.742 37.1679C102.821 28.3133 98.3905 20.1993 91.9797 13.7965Z" fill="#7ed0fc"/>
<path d="M94.1097 133.147C100.509 139.552 108.616 143.982 117.464 145.908C126.312 147.833 135.527 147.173 144.01 144.007L83.2797 83.2765C80.1153 91.7527 79.4537 100.96 81.3738 109.801C83.2939 118.643 87.7146 126.746 94.1097 133.147Z" fill="#7ed0fc"/>
<path d="M74.6197 152.707C81.0181 159.108 89.1233 163.533 97.9679 165.453C106.812 167.373 116.023 166.708 124.5 163.537L63.7697 102.817C60.5986 111.297 59.9354 120.51 61.8594 129.357C63.7834 138.204 68.2132 146.309 74.6197 152.707Z" fill="#7ed0fc"/>
</svg>
